<?xml version="1.0" encoding="iso-8859-1"?>
<!-- Generator: Adobe Illustrator 19.0.0, SVG Export Plug-In . SVG Version: 6.00 Build 0)  -->
<svg version="1.1" id="Layer_1" xmlns="http://www.w3.org/2000/svg" xmlns:xlink="http://www.w3.org/1999/xlink" x="0px" y="0px"
	 viewBox="0 0 133.758 133.758" style="enable-background:new 0 0 133.758 133.758;" xml:space="preserve">
<g id="XMLID_153_">
	<g id="XMLID_149_">
		<path id="XMLID_154_" style="fill:#66B406;" d="M47.768,44.967c-4.458,5.34-25.813,32.06-25.813,53.83
			c0,24.305,11.92,34.961,26.623,34.961V44.586C48.278,44.586,47.979,44.713,47.768,44.967z"/>
		<path id="XMLID_157_" style="fill:#5B9309;" d="M75.201,98.797c0-21.77-21.355-48.49-25.813-53.83
			c-0.211-0.254-0.511-0.381-0.81-0.381v89.172c0.272,0,0.54-0.012,0.81-0.02C63.715,133.352,75.201,122.652,75.201,98.797z"/>
	</g>
	<g id="XMLID_220_">
		<path id="XMLID_222_" style="fill:#50C7E2;" d="M85.99,88.791c4.459-5.342,25.813-32.061,25.813-53.83
			C111.804,10.654,99.884,0,85.181,0v89.172C85.479,89.172,85.778,89.045,85.99,88.791z"/>
		<path id="XMLID_221_" style="fill:#41A9C4;" d="M58.557,34.961c0,21.77,21.355,48.488,25.813,53.83
			c0.211,0.254,0.511,0.381,0.81,0.381V0c-0.272,0-0.541,0.012-0.81,0.018C70.042,0.406,58.557,11.104,58.557,34.961z"/>
	</g>
</g>
<g>
</g>
<g>
</g>
<g>
</g>
<g>
</g>
<g>
</g>
<g>
</g>
<g>
</g>
<g>
</g>
<g>
</g>
<g>
</g>
<g>
</g>
<g>
</g>
<g>
</g>
<g>
</g>
<g>
</g>
</svg>
