<?xml version='1.0' encoding='utf-8'?>
<!DOCTYPE svg PUBLIC '-//W3C//DTD SVG 1.1//EN' 'http://www.w3.org/Graphics/SVG/1.1/DTD/svg11.dtd'>
<svg version="1.1" xmlns="http://www.w3.org/2000/svg" viewBox="0 0 512 512" xmlns:xlink="http://www.w3.org/1999/xlink" enable-background="new 0 0 512 512">
  <g>
    <g>
      <path d="m31.4,193.2h306.8c53.6,0 97.1-40.9 97.1-91.1s-43.5-91.1-97.1-91.1c-53.6,0-97.1,40.9-97.1,91.1 0,11.3 9.1,20.4 20.4,20.4 11.3,0 20.4-9.1 20.4-20.4 0-27.7 25.3-50.3 56.3-50.3 31,0 56.3,22.5 56.3,50.3 0,27.7-25.3,50.3-56.3,50.3h-306.8c-11.3,0-20.4,9.1-20.4,20.4s9.1,20.4 20.4,20.4z"/>
      <path d="m338.2,318.8h-306.8c-11.3,0-20.4,9.1-20.4,20.4s9.1,20.4 20.4,20.4h306.8c31,0 56.3,22.6 56.3,50.3 0,27.7-25.3,50.3-56.3,50.3-11.3,0-20.4,9.1-20.4,20.4 0,11.3 9.1,20.4 20.4,20.4 53.6,0 97.1-40.9 97.1-91.1 0.1-50.2-43.5-91.1-97.1-91.1z"/>
      <path d="m480.6,177.3c-11.3,0-20.4,9.1-20.4,20.4 0,22.8-23.6,41.3-52.6,41.3h-376.2c-11.3,0-20.4,9.1-20.4,20.4 0,11.3 9.1,20.4 20.4,20.4h376.2c51.5,0 93.4-36.8 93.4-82.1 0-11.3-9.1-20.4-20.4-20.4z"/>
    </g>
  </g>
</svg>
